<svg width="17" height="17" viewBox="0 0 17 17" fill="none" xmlns="http://www.w3.org/2000/svg">
<path d="M0.5 6.05263C0.5 5.24424 0.501083 4.68897 0.557716 4.2719C0.612317 3.8698 0.710084 3.67149 0.85 3.53288C0.990561 3.39362 1.19262 3.2959 1.60073 3.24151C2.02284 3.18525 2.58443 3.1842 3.4 3.1842H13.6C14.4156 3.1842 14.9772 3.18525 15.3993 3.24151C15.8074 3.2959 16.0094 3.39362 16.15 3.53288C16.2899 3.67149 16.3877 3.8698 16.4423 4.2719C16.4989 4.68897 16.5 5.24424 16.5 6.05263C16.5 6.15365 16.5 6.23353 16.4982 6.30222C16.4973 6.33671 16.4961 6.36526 16.4945 6.38908C16.4209 6.3941 16.3166 6.39473 16.15 6.39473H0.85C0.683264 6.39473 0.579015 6.3941 0.505497 6.38911C0.503921 6.36519 0.502658 6.33651 0.501778 6.30186C0.500033 6.23321 0.5 6.15344 0.5 6.05263ZM0.85 16.1513C0.710084 16.0127 0.612317 15.8144 0.557716 15.4123C0.501083 14.9952 0.5 14.44 0.5 13.6316V9.42105C0.5 9.32023 0.500033 9.24046 0.501778 9.17181C0.502658 9.13716 0.503923 9.10849 0.505498 9.08456C0.579017 9.07957 0.683265 9.07894 0.85 9.07894H16.15C16.3166 9.07894 16.4209 9.07957 16.4945 9.08459C16.4961 9.10842 16.4973 9.13697 16.4982 9.17145C16.5 9.24014 16.5 9.32002 16.5 9.42105V13.6316C16.5 14.44 16.4989 14.9952 16.4423 15.4123C16.3877 15.8144 16.2899 16.0127 16.15 16.1513C16.0094 16.2906 15.8074 16.3883 15.3993 16.4427C14.9772 16.4989 14.4156 16.5 13.6 16.5H3.4C2.58443 16.5 2.02284 16.4989 1.60073 16.4427C1.19262 16.3883 0.990561 16.2906 0.85 16.1513Z" fill="white" stroke="white"/>
<path d="M4.25 1V3.52632V1ZM12.75 1V3.52632V1Z" fill="white"/>
<path d="M4.25 1V3.52632M12.75 1V3.52632" stroke="white" stroke-width="2" stroke-linecap="round"/>
</svg>
