<svg width="22" height="22" viewBox="0 0 22 22" fill="none" xmlns="http://www.w3.org/2000/svg">
<path fill-rule="evenodd" clip-rule="evenodd" d="M2.75 3.4375C2.75 3.25516 2.82243 3.0803 2.95136 2.95136C3.0803 2.82243 3.25516 2.75 3.4375 2.75H18.5625C18.7448 2.75 18.9197 2.82243 19.0486 2.95136C19.1776 3.0803 19.25 3.25516 19.25 3.4375V14.4375C19.25 14.6198 19.1776 14.7947 19.0486 14.9236C18.9197 15.0526 18.7448 15.125 18.5625 15.125H13.0625V17.875H15.125V19.25H6.875V17.875H8.9375V15.125H3.4375C3.25516 15.125 3.0803 15.0526 2.95136 14.9236C2.82243 14.7947 2.75 14.6198 2.75 14.4375V3.4375ZM10.3125 17.875H11.6875V15.125H10.3125V17.875Z" fill="white"/>
</svg>
