<svg width="24" height="24" viewBox="0 0 24 24" fill="none" xmlns="http://www.w3.org/2000/svg">
<path d="M20.0296 18.9196L17.699 16.589C18.9759 15.0274 19.6037 13.0347 19.4526 11.0232C19.3014 9.01167 18.3829 7.13518 16.8871 5.78188C15.3912 4.42857 13.4324 3.70198 11.4158 3.7524C9.39924 3.80282 7.4792 4.62639 6.05283 6.05276C4.62645 7.47914 3.80288 9.39918 3.75246 11.4158C3.70204 13.4323 4.42863 15.3911 5.78194 16.887C7.13524 18.3829 9.01173 19.3014 11.0233 19.4525C13.0348 19.6036 15.0275 18.9759 16.5891 17.699L18.9197 20.0296C19.0677 20.1726 19.266 20.2517 19.4718 20.2499C19.6777 20.2481 19.8745 20.1656 20.0201 20.02C20.1656 19.8745 20.2482 19.6776 20.25 19.4718C20.2518 19.266 20.1726 19.0677 20.0296 18.9196ZM11.6249 17.9047C10.3829 17.9047 9.16873 17.5363 8.13602 16.8463C7.10331 16.1563 6.29841 15.1755 5.8231 14.028C5.3478 12.8805 5.22344 11.6179 5.46574 10.3997C5.70805 9.18154 6.30615 8.06258 7.1844 7.18433C8.06264 6.30609 9.1816 5.70799 10.3998 5.46568C11.6179 5.22338 12.8806 5.34774 14.0281 5.82304C15.1756 6.29835 16.1563 7.10325 16.8464 8.13596C17.5364 9.16867 17.9047 10.3828 17.9047 11.6248C17.9028 13.2898 17.2406 14.886 16.0633 16.0633C14.886 17.2406 13.2898 17.9028 11.6249 17.9047Z" fill="white"/>
</svg>
