<svg width="64" height="64" viewBox="0 0 64 64" fill="none" xmlns="http://www.w3.org/2000/svg">
<path d="M28.55 25.72C28.43 25.59 28.4 25.39 28.49 25.23C28.51 25.2 28.53 25.17 28.55 25.15L37.08 16.61C37.41 16.27 37.96 16.29 38.28 16.63C40.68 19.23 42.54 22.46 43.53 26.18L38.38 32L30.7 29.6C30.59 29.2 30.46 28.8 30.29 28.42C29.87 27.42 29.29 26.51 28.55 25.72Z" fill="#28A8EA"/>
<path d="M47.63 25.96C47.52 25.5 47.06 25.23 46.6 25.35L30.7 29.6C31.11 31.13 31.14 32.82 30.7 34.43L36 41.04L43.55 37.89L46.59 38.71C47.04 38.83 47.51 38.56 47.62 38.1C48.54 34.17 48.56 29.96 47.63 25.96Z" fill="#0078D4"/>
<path d="M30.7 34.43C30.31 35.88 29.58 37.2 28.57 38.3C28.5 38.37 28.45 38.48 28.45 38.59C28.45 38.71 28.5 38.81 28.57 38.88L37.09 47.39C37.42 47.72 37.97 47.71 38.29 47.37C40.82 44.64 42.6 41.38 43.54 37.88L30.7 34.43Z" fill="#0358A7"/>
<path opacity="0.1" d="M35 40.67V24.33C35 23.6 34.4 23 33.67 23H30.68L28.56 25.12C28.54 25.14 28.51 25.17 28.5 25.2C28.41 25.36 28.43 25.56 28.56 25.69C29.3 26.48 29.88 27.39 30.3 28.39C30.46 28.78 30.6 29.17 30.71 29.57C30.92 30.35 31.03 31.17 31.03 31.99C31.03 32.81 30.92 33.62 30.71 34.4C30.6 34.81 30.46 35.21 30.3 35.61C29.88 36.59 29.31 37.49 28.59 38.28C28.52 38.35 28.47 38.46 28.47 38.57C28.47 38.69 28.52 38.79 28.59 38.86L31.72 42H33.67C34.4 42 35 41.4 35 40.67Z" fill="black"/>
<path opacity="0.2" d="M34 41.67V25.33C34 24.6 33.4 24 32.67 24H29.68L28.56 25.12C28.54 25.14 28.51 25.17 28.5 25.2C28.41 25.36 28.43 25.56 28.56 25.69C29.3 26.48 29.88 27.39 30.3 28.39C30.46 28.78 30.6 29.17 30.71 29.57C30.92 30.35 31.03 31.17 31.03 31.99C31.03 32.81 30.92 33.62 30.71 34.4C30.6 34.81 30.46 35.21 30.3 35.61C29.88 36.59 29.31 37.49 28.59 38.28C28.52 38.35 28.47 38.46 28.47 38.57C28.47 38.69 28.52 38.79 28.59 38.86L32.72 43C33.43 42.97 34 42.38 34 41.67Z" fill="black"/>
<path opacity="0.2" d="M34 39.67V25.33C34 24.6 33.4 24 32.67 24H29.68L28.56 25.12C28.54 25.14 28.51 25.17 28.5 25.2C28.41 25.36 28.43 25.56 28.56 25.69C29.3 26.48 29.88 27.39 30.3 28.39C30.46 28.78 30.6 29.17 30.71 29.57C30.92 30.35 31.03 31.17 31.03 31.99C31.03 32.81 30.92 33.62 30.71 34.4C30.6 34.81 30.46 35.21 30.3 35.61C29.88 36.59 29.31 37.49 28.59 38.28C28.52 38.35 28.47 38.46 28.47 38.57C28.47 38.69 28.52 38.79 28.59 38.86L30.71 41H32.66C33.4 41 34 40.4 34 39.67Z" fill="black"/>
<path opacity="0.2" d="M33 39.67V25.33C33 24.6 32.4 24 31.67 24H29.68L28.56 25.12C28.54 25.14 28.51 25.17 28.5 25.2C28.41 25.36 28.43 25.56 28.56 25.69C29.3 26.48 29.88 27.39 30.3 28.39C30.46 28.78 30.6 29.17 30.71 29.57C30.92 30.35 31.03 31.17 31.03 31.99C31.03 32.81 30.92 33.62 30.71 34.4C30.6 34.81 30.46 35.21 30.3 35.61C29.88 36.59 29.31 37.49 28.59 38.28C28.52 38.35 28.47 38.46 28.47 38.57C28.47 38.69 28.52 38.79 28.59 38.86L30.71 41H31.66C32.4 41 33 40.4 33 39.67Z" fill="black"/>
<path d="M31.67 40H18.33C17.6 40 17 39.4 17 38.67V25.33C17 24.6 17.6 24 18.33 24H31.66C32.4 24 33 24.6 33 25.33V38.66C33 39.4 32.4 40 31.67 40Z" fill="#0078D4"/>
<path d="M24.83 31.35C24.9 31.48 24.97 31.68 25.05 31.95H25.07C25.14 31.71 25.21 31.51 25.29 31.36L27.32 27.54C27.47 27.25 27.78 27.07 28.11 27.07C28.8 27.07 29.23 27.81 28.88 28.41L26.07 33.3C25.99 33.44 25.95 33.59 25.95 33.74V36.21C25.95 36.7 25.55 37.1 25.06 37.1H24.88C24.39 37.1 23.99 36.7 23.99 36.21V33.76C23.99 33.61 23.95 33.46 23.88 33.32L21.12 28.38C20.79 27.78 21.22 27.05 21.9 27.05H22.08C22.41 27.05 22.72 27.24 22.87 27.53L24.83 31.35Z" fill="#F9F7F7"/>
</svg>
